# xmcd CD database file
#
# Track frame offsets:
#	150
#	17352
#	33100
#
# Disc length: 670 seconds
#
# Revision: 3
# Processed by: cddbd v1.5.2PL0 Copyright (c) Steve Scherf et al.
# Submitted via: CDex 1.70beta2
#
DISCID=11029c03
DTITLE=VANILLA - 愛をちょうだい
DYEAR=1997
DGENRE=JPop
TTITLE0=愛をちょうだい
TTITLE1=甘い生活
TTITLE2=愛をちょうだい (オリジナルカラオケ)
EXTD=YEAR: 1997
EXTT0=
EXTT1=
EXTT2=
PLAYORDER=
